# xmcd CD database file
#
# Track frame offsets:
#	150
#	20102
#	46990
#	66942
#
# Disc length: 1249 seconds
#
# Revision: 0
# Processed by: cddbd v1.5.1PL2 Copyright (c) Steve Scherf et al.
# Submitted via: CDex 1.51
#
DISCID=3304df04
DTITLE=みずさわゆうき - 影法師
DYEAR=2005
DGENRE=Pop
TTITLE0=影法師
TTITLE1=Always
TTITLE2=影法師 (off vocal)
TTITLE3=Always (off vocal)
EXTD=YEAR: 2005
EXTT0=
EXTT1=
EXTT2=
EXTT3=
PLAYORDER=
